<?xml version="1.0" encoding="utf-8"?>
<!-- Generator: Adobe Illustrator 21.0.2, SVG Export Plug-In . SVG Version: 6.00 Build 0)  -->
<svg version="1.1" id="Capa_1" xmlns="http://www.w3.org/2000/svg" xmlns:xlink="http://www.w3.org/1999/xlink" x="0px" y="0px"
	 viewBox="0 0 512 512" style="enable-background:new 0 0 512 512;" xml:space="preserve">
<style type="text/css">
	.st0{fill:#FFFFFF;}
</style>
<title>fb</title>
<path class="st0" d="M331,106.1l-38.9-0.1c-43.7,0-71.9,29-71.9,73.8v34H181c-3.4,0-6.1,2.7-6.1,6.1c0,0,0,0,0,0v49.3
	c0,3.4,2.7,6.1,6.1,6.1c0,0,0,0,0,0h39.1v124.5c0,3.4,2.7,6.1,6.1,6.1c0,0,0,0,0,0h51c3.4,0,6.1-2.7,6.1-6.1l0,0V275.4h45.7
	c3.4,0,6.1-2.7,6.1-6.1l0,0V220c0-3.4-2.7-6.1-6.1-6.1l0,0h-45.7V185c0-13.9,3.3-20.9,21.4-20.9H331c3.4,0,6.1-2.7,6.1-6.1v-45.8
	C337.1,108.8,334.4,106.1,331,106.1z"/>
</svg>
