<?xml version="1.0" encoding="utf-8"?>
<!-- Generator: Adobe Illustrator 19.1.0, SVG Export Plug-In . SVG Version: 6.00 Build 0)  -->
<svg version="1.1" id="IISER_logo" xmlns="http://www.w3.org/2000/svg" xmlns:xlink="http://www.w3.org/1999/xlink" x="0px" y="0px"
	 viewBox="0 0 724 724" style="enable-background:new 0 0 724 724;" xml:space="preserve">
<style type="text/css">
	.st0{fill:#87633B;}
	.st1{fill:#87633B;stroke:#BE1E2D;stroke-miterlimit:10;}
</style>
<path class="st0" d="M579.6,410.8c0,0.9-0.1,1.9-0.3,3.2c-1.8,0.1-3.5,0.3-5.1,0.3c-39.3,0-78.7,0.1-118,0c-22.7,0-45.4,0-68-0.6
	c-43.1-1.1-78.4-19-107.5-50.5c-20.7-22.5-33.8-48.8-42.3-77.7c-7.1-24.2-12.9-48.7-19.4-73c-7.2-27-15.6-53.5-30.3-77.6
	c-8.9-14.6-20.5-26.4-35-35.4c-7.8-4.8-15.4-10.2-23.6-15.7c1.5-1,2.3-1.6,3.2-2c17.8-8.8,36.4-15.1,56.3-17
	c0.6-0.1,1.2-0.4,1.8-0.6h29c6,1.1,12.2,1.7,18.1,3.3c40.1,10.7,68.4,34.1,80,75.1c5,17.7,6.9,35.8,6.9,54.1
	c-0.1,27.8-0.8,55.6-0.8,83.3c0,20.3,2,40.5,9.1,59.7c11.6,31.3,34.5,48,67.4,50.6c13,1,26,0.8,39,1c26.3,0.3,52.6,0.4,78.9,0.6
	c11.5,0.1,23.1,0,34.9,0c0.2-2.6,0.5-4.4,0.5-6.2c0-46.7,0-93.4,0-140.2c0-8.7-0.3-17.4-0.1-26.2c0.1-3.1-1.1-4.3-4-4.6
	c-13.1-1.6-25.3,1-36.1,7.9c-5.1-5.3-10.1-10.5-15.6-16.2c2.9-1.9,6.2-4.7,9.9-6.4c21.5-9.5,43.7-12.3,66.8-6.7c2.8,0.7,3.8,2,3.8,5
	C579.4,269,579.5,339.9,579.6,410.8z"/>
<path class="st1" d="M625.6,163.2c-0.1,97.8-0.1,195.5-0.1,293.3c0,0.9-0.1,1.8-0.2,3.2c-1.7,0.1-3.2,0.3-4.8,0.3
	c-65.5,0.1-131,0.3-196.6,0.2c-22,0-44.1-0.1-66-1.5c-29.2-2-58.2-6.6-85.3-18.3c-34.6-15-61.4-39.2-81.3-71.2
	c-15.4-24.8-25.9-51.7-35.5-79c-5.9-16.9-12.6-33.4-24-47.5c-11.6-14.2-26.2-24-43.7-29.4v-0.8c7.7-7.8,16.4-14.2,26.7-18.2
	c28.5-11.3,61.2-0.5,73.7,25c5,10.3,8.6,21.4,12.3,32.3c6.7,19.7,12,39.8,19.7,59.1c10.9,27.7,26.5,52.7,48.1,73.5
	c27.7,26.7,60.4,43.7,99,48.4c4.4,0.5,8.8,0.8,13.2,0.8c70.9,0.1,141.8,0.1,212.7,0.1h4.7c0.1-1.6,0.3-2.9,0.3-4.2
	c0-83.4,0-166.8,0.1-250.1c0-3.5-1.1-4.7-4.5-5.5c-40.7-10-78.5-2.6-114,18.8c-2.5,1.5-4.6,1.9-7.4,0.7c-3.8-1.6-7.8-2.8-11.8-3.9
	c-3.9-1.1-8-1.9-12.5-3c0.9-0.8,1.4-1.5,2-1.8c18.3-11.6,37-22.1,57.9-28.5c22.2-6.8,44.8-9,68-6.4c15.7,1.8,30.9,5,46,9.6
	C624.8,159.5,625.6,160.5,625.6,163.2z"/>
<path class="st0" d="M520.7,285.8c0.2,46.5-38.1,85.2-84.5,85.3c-47.7,0.2-85.7-37.3-86.4-84c-0.7-45,35.1-86.2,85.1-86.6
	C482,200.2,520.5,238.6,520.7,285.8z"/>
<path class="st0" d="M382.5,524c9.3-4.6,13-12,13.4-21.4c0.4-10.9-4.2-22.8-19.2-24.2c-6.5-0.6-13.1-0.5-19.7-0.6
	c-7.3-0.1-14.7,0-21.8,0v81.4h23.6v-29.4c0.3-0.3,0.6-0.6,0.9-0.9c1.1,0.9,2.8,1.6,3.3,2.8c3.1,6.5,6,13.2,8.8,19.8
	c3.9,9.3,1.8,8.4,12.3,7.8c5.2-0.3,10.4-0.4,16.1-0.7C394.1,546.6,388.3,535.4,382.5,524z M371.5,508.3c-2.9,4.6-7.5,4.9-12.5,4.7
	v-18.6c4.7,0.3,9.4-1.3,12.4,3.3C373.5,501.1,373.6,504.9,371.5,508.3z"/>
<path class="st0" d="M323.7,540.9c-0.4,5.5-0.7,11.1-1.2,16.6c-0.1,0.7-1.7,1.7-2.6,1.7c-15.7,0.1-31.4,0-47.1,0
	c-0.4,0-0.7-0.2-1.4-0.5c0-6.4,0-12.6,0-18.7c-0.2-19.2-0.3-38.4-0.7-57.5c-0.1-3.6,0.8-4.8,4.6-4.8c15.1,0.2,30.3,0.1,45.7,0.1
	c0,5.3,0.1,10.3-0.1,15.3c0,0.7-2.1,1.7-3.2,1.8c-6.2,0.2-12.3,0.1-18.5,0.1c-1.3,0-2.6,0.1-4.1,0.2V509h24.7
	c-0.3,5.3-0.5,10.2-1.1,15c-0.1,0.7-2,1.7-3,1.7c-5.1,0.2-10.2,0.2-15.3,0.2c-1.4,0-2.9,0-4.6,0v15H323.7z"/>
<path class="st0" d="M233.7,560.5c-8.5,0.6-17.2,0.8-25.5-2.2c-2.6-0.9-4-2.2-3.7-5.2c0.5-5.2,0.6-10.4,0.9-15.1
	c5.4,1.8,10.7,4,16.1,5.2c2.8,0.7,6.3,0.4,9-0.7c2.1-0.9,4.6-3.5,4.8-5.6c0.2-2-1.8-5.1-3.7-6.3c-4.2-2.6-8.9-4.2-13.3-6.5
	c-14.5-7.4-18.7-25.9-8.9-38.7c4.8-6.2,11.5-8.5,19-9.2c8.1-0.7,16,0.2,23.7,3.1c2.1,0.8,3.3,1.8,3.1,4.4
	c-0.5,5.2-0.7,10.3-1.1,16.3c-2.8-1.7-4.8-3.4-7-4.1c-4.1-1.3-8.4-2.4-12.7-2.8c-3.2-0.3-5.5,2-6.4,5.1c-0.8,3,0.7,5.4,3.2,6.7
	c4,2.1,8.2,3.9,12.3,5.8c7,3.3,12.8,7.9,14.9,15.9C263,543.3,251.6,559.2,233.7,560.5z"/>
<path class="st0" d="M612.7,479v79.5c-6.8,2-10.5-0.4-13.8-6.3c-9.6-17.2-19.9-34-30-51c-0.6-1-1.3-2-2.6-3v60.5h-9.4v-79.4
	c7.4-2,9.4-1.3,13,4.9c10.4,17.6,20.8,35.1,31.1,52.6c0.6,1,1.3,2,2.6,4.1v-62H612.7z"/>
<path class="st0" d="M149,478.1v81.2c-7.5,0-15.1,0.1-22.6-0.2c-0.8,0-2.1-2.2-2.1-3.4c0-8.7,0.4-17.4,0.3-26.1
	c-0.1-15.4-0.4-30.8-0.6-46.3c0-1.6,0-3.2,0-5.3H149z"/>
<rect x="165.9" y="477.9" class="st0" width="24.4" height="81"/>
<path class="st0" d="M544.2,486.2c-0.1,15.8-0.1,31.6-0.5,47.5c-0.2,7.8-2.3,15.3-8.6,20.5c-9.3,7.7-20.1,7.5-30.9,4.2
	c-9.7-3.1-14.5-11-15-20.5c-1-19.5-1-39.1-1.4-59.1h9.9v4.4c0,13.8,0,27.6,0,41.5c0,3.6,0.4,7.2,0.7,10.8c0.6,6.5,3.5,11.7,9.9,13.8
	c7,2.3,14.1,2.2,20.3-2.6c4.1-3.2,5.2-8.1,5.4-13c0.4-13.8,0.5-27.6,0.6-41.4c0.1-4.4,0-8.8,0-13.1c0.8-0.3,1.1-0.5,1.5-0.5
	C544.2,478.2,544.2,478.2,544.2,486.2z"/>
<path class="st0" d="M477.5,500.1c-0.9-11.1-5.2-20.9-19.8-21.2c-7.9-0.2-15.8,0-23.7-0.3c-3.5-0.1-4.6,0.8-4.5,4.5
	c0.2,23.9,0.1,47.8,0.1,71.7c0,1.3,0.1,2.6,0.2,3.9h8.4v-32.2c5.9,0,11.2,0,16.6,0c12.4-0.1,19.3-5,21.8-16
	C477.3,507,477.8,503.5,477.5,500.1z M468.7,505.8c-0.9,6-4.3,10-10,10.4c-6.6,0.5-13.3,0.1-20.4,0.1v-27.5c7.6,0,15.1,0,22.5,0
	c0.8,0,1.5,0.4,2.2,0.8C467.3,492.1,469.7,499,468.7,505.8z"/>
<polygon class="st0" points="672.4,549.2 672.4,558.7 630.7,558.7 630.7,478.9 671,478.9 671,488.2 638.2,488.2 638.2,512.6 
	666.2,512.6 666.2,521.9 638.3,521.9 638.3,549.2 "/>
</svg>
